<mxfile host="Electron" agent="Mozilla/5.0 (Windows NT 10.0; Win64; x64) AppleWebKit/537.36 (KHTML, like Gecko) draw.io/27.0.9 Chrome/134.0.6998.205 Electron/35.4.0 Safari/537.36" version="27.0.9">
  <diagram name="Página-1" id="XL4JP1IkJVfckZYvZl3n">
    <mxGraphModel dx="1281" dy="1803" grid="1" gridSize="10" guides="1" tooltips="1" connect="1" arrows="1" fold="1" page="1" pageScale="1" pageWidth="827" pageHeight="1169" math="0" shadow="0">
      <root>
        <mxCell id="0" />
        <mxCell id="1" parent="0" />
        <mxCell id="LJnf9fmG7pfZY_vgP7vN-9" value="&lt;p style=&quot;margin:0px;margin-top:4px;text-align:center;&quot;&gt;&lt;i&gt;Cliente&lt;/i&gt;&lt;/p&gt;&lt;hr size=&quot;1&quot; style=&quot;border-style:solid;&quot;&gt;&lt;p style=&quot;margin:0px;margin-left:4px;&quot;&gt;-ID: Int&lt;/p&gt;&lt;p style=&quot;margin:0px;margin-left:4px;&quot;&gt;-User: String&lt;br&gt;-Password: String&lt;/p&gt;&lt;p style=&quot;margin:0px;margin-left:4px;&quot;&gt;&lt;span style=&quot;background-color: transparent; color: light-dark(rgb(0, 0, 0), rgb(255, 255, 255));&quot;&gt;-Friends: List&amp;lt;Cliente&amp;gt;&lt;/span&gt;&lt;/p&gt;&lt;p style=&quot;margin:0px;margin-left:4px;&quot;&gt;-Seen: List&amp;lt;ContenidoVisto&amp;gt;&lt;br&gt;-Whishlists: List &amp;lt;Wishlist&amp;gt;&lt;/p&gt;&lt;p style=&quot;margin:0px;margin-left:4px;&quot;&gt;-Salt: String&lt;/p&gt;&lt;hr size=&quot;1&quot; style=&quot;border-style:solid;&quot;&gt;&lt;p style=&quot;margin:0px;margin-left:4px;&quot;&gt;+agregarAmigo(amigo:Cliente)&lt;/p&gt;&lt;p style=&quot;margin:0px;margin-left:4px;&quot;&gt;+eliminarAmigo(amigo:Cliente)&lt;/p&gt;&lt;p style=&quot;margin:0px;margin-left:4px;&quot;&gt;+handleSecurePassword(password: String)&lt;/p&gt;&lt;p style=&quot;margin:0px;margin-left:4px;&quot;&gt;+generateSalt()&lt;/p&gt;&lt;p style=&quot;margin:0px;margin-left:4px;&quot;&gt;+hashPassword(password:String, salt: String)&lt;/p&gt;&lt;p style=&quot;margin:0px;margin-left:4px;&quot;&gt;+verificarPassword(password: String)&lt;/p&gt;&lt;p style=&quot;margin:0px;margin-left:4px;&quot;&gt;&lt;span style=&quot;background-color: transparent; color: light-dark(rgb(0, 0, 0), rgb(255, 255, 255));&quot;&gt;+getId()&lt;/span&gt;&lt;/p&gt;&lt;p style=&quot;margin:0px;margin-left:4px;&quot;&gt;&lt;span style=&quot;background-color: transparent; color: light-dark(rgb(0, 0, 0), rgb(255, 255, 255));&quot;&gt;+setId()&lt;/span&gt;&lt;/p&gt;&lt;p style=&quot;margin:0px;margin-left:4px;&quot;&gt;&lt;span style=&quot;background-color: transparent; color: light-dark(rgb(0, 0, 0), rgb(255, 255, 255));&quot;&gt;+getUser()&lt;/span&gt;&lt;/p&gt;&lt;p style=&quot;margin:0px;margin-left:4px;&quot;&gt;+setUser(user: String)&lt;/p&gt;&lt;p style=&quot;margin:0px;margin-left:4px;&quot;&gt;+getPassword()&lt;/p&gt;&lt;p style=&quot;margin:0px;margin-left:4px;&quot;&gt;+setPassword(password: String)&lt;/p&gt;&lt;p style=&quot;margin:0px;margin-left:4px;&quot;&gt;+getFriends()&lt;/p&gt;&lt;p style=&quot;margin:0px;margin-left:4px;&quot;&gt;+getWishlist()&lt;/p&gt;&lt;p style=&quot;margin:0px;margin-left:4px;&quot;&gt;+addWishlist(wl: Wishlist)&lt;/p&gt;&lt;p style=&quot;margin:0px;margin-left:4px;&quot;&gt;+getSeen()&lt;/p&gt;" style="verticalAlign=top;align=left;overflow=fill;html=1;whiteSpace=wrap;" parent="1" vertex="1">
          <mxGeometry x="10" y="280" width="404" height="380" as="geometry" />
        </mxCell>
        <mxCell id="LJnf9fmG7pfZY_vgP7vN-11" value="&lt;p style=&quot;margin:0px;margin-top:4px;text-align:center;&quot;&gt;&lt;i&gt;Wishlist&lt;/i&gt;&lt;span style=&quot;color: rgba(0, 0, 0, 0); font-family: monospace; font-size: 0px; text-wrap-mode: nowrap; background-color: transparent; text-align: left;&quot;&gt;%3CmxGraphModel%3E%3Croot%3E%3CmxCell%20id%3D%220%22%2F%3E%3CmxCell%20id%3D%221%22%20parent%3D%220%22%2F%3E%3CmxCell%20id%3D%222%22%20value%3D%22%26lt%3Bp%20style%3D%26quot%3Bmargin%3A0px%3Bmargin-top%3A4px%3Btext-align%3Acenter%3B%26quot%3B%26gt%3B%26lt%3Bi%26gt%3BVisto%26lt%3B%2Fi%26gt%3B%26lt%3B%2Fp%26gt%3B%26lt%3Bhr%20size%3D%26quot%3B1%26quot%3B%20style%3D%26quot%3Bborder-style%3Asolid%3B%26quot%3B%26gt%3B%26lt%3Bp%20style%3D%26quot%3Bmargin%3A0px%3Bmargin-left%3A4px%3B%26quot%3B%26gt%3B-NomVisto%26lt%3B%2Fp%26gt%3B%26lt%3Bp%20style%3D%26quot%3Bmargin%3A0px%3Bmargin-left%3A4px%3B%26quot%3B%26gt%3B%26lt%3Bspan%20style%3D%26quot%3Bbackground-color%3A%20transparent%3B%20color%3A%20light-dark(rgb(0%2C%200%2C%200)%2C%20rgb(255%2C%20255%2C%20255))%3B%26quot%3B%26gt%3B-FecVisto%26lt%3B%2Fspan%26gt%3B%26lt%3B%2Fp%26gt%3B%26lt%3Bp%20style%3D%26quot%3Bmargin%3A0px%3Bmargin-left%3A4px%3B%26quot%3B%26gt%3B-PlatVisto%26lt%3Bbr%26gt%3B-Wishl%26lt%3B%2Fp%26gt%3B%26lt%3Bhr%20size%3D%26quot%3B1%26quot%3B%20style%3D%26quot%3Bborder-style%3Asolid%3B%26quot%3B%26gt%3B%26lt%3Bp%20style%3D%26quot%3Bmargin%3A0px%3Bmargin-left%3A4px%3B%26quot%3B%26gt%3B%2BInfoVisto%26lt%3B%2Fp%26gt%3B%22%20style%3D%22verticalAlign%3Dtop%3Balign%3Dleft%3Boverflow%3Dfill%3Bhtml%3D1%3BwhiteSpace%3Dwrap%3B%22%20vertex%3D%221%22%20parent%3D%221%22%3E%3CmxGeometry%20x%3D%22550%22%20y%3D%22110%22%20width%3D%22190%22%20height%3D%22120%22%20as%3D%22geometry%22%2F%3E%3C%2FmxCell%3E%3C%2Froot%3E%3C%2FmxGraphModel%3E&lt;/span&gt;&lt;/p&gt;&lt;hr size=&quot;1&quot; style=&quot;border-style:solid;&quot;&gt;&lt;p style=&quot;margin:0px;margin-left:4px;&quot;&gt;-Titulo: String&lt;br&gt;-Contenido: List&amp;lt;Contenido&amp;gt;&lt;/p&gt;&lt;hr size=&quot;1&quot; style=&quot;border-style:solid;&quot;&gt;&lt;p style=&quot;margin: 0px 0px 0px 4px;&quot;&gt;+getTitle()&lt;/p&gt;&lt;p style=&quot;margin: 0px 0px 0px 4px;&quot;&gt;+setTitle(titulo: String)&lt;br&gt;+existeWishlist(titulo: String)&lt;br&gt;+agregarContenidoAWishlist(contenido: Contenido)&lt;br&gt;+eliminarContenidoWishlist(contenido: Contenido)&lt;/p&gt;&lt;p style=&quot;margin: 0px 0px 0px 4px;&quot;&gt;+getContenidos()&lt;/p&gt;" style="verticalAlign=top;align=left;overflow=fill;html=1;whiteSpace=wrap;" parent="1" vertex="1">
          <mxGeometry x="50" y="780" width="370" height="193" as="geometry" />
        </mxCell>
        <mxCell id="LJnf9fmG7pfZY_vgP7vN-12" value="&lt;p style=&quot;margin:0px;margin-top:4px;text-align:center;&quot;&gt;&lt;i&gt;Contenido&lt;/i&gt;&lt;span style=&quot;color: rgba(0, 0, 0, 0); font-family: monospace; font-size: 0px; text-wrap-mode: nowrap; background-color: transparent; text-align: left;&quot;&gt;%3CmxGraphModel%3E%3Croot%3E%3CmxCell%20id%3D%220%22%2F%3E%3CmxCell%20id%3D%221%22%20parent%3D%220%22%2F%3E%3CmxCell%20id%3D%222%22%20value%3D%22%26lt%3Bp%20style%3D%26quot%3Bmargin%3A0px%3Bmargin-top%3A4px%3Btext-align%3Acenter%3B%26quot%3B%26gt%3B%26lt%3Bi%26gt%3BVisto%26lt%3B%2Fi%26gt%3B%26lt%3B%2Fp%26gt%3B%26lt%3Bhr%20size%3D%26quot%3B1%26quot%3B%20style%3D%26quot%3Bborder-style%3Asolid%3B%26quot%3B%26gt%3B%26lt%3Bp%20style%3D%26quot%3Bmargin%3A0px%3Bmargin-left%3A4px%3B%26quot%3B%26gt%3B-NomVisto%26lt%3B%2Fp%26gt%3B%26lt%3Bp%20style%3D%26quot%3Bmargin%3A0px%3Bmargin-left%3A4px%3B%26quot%3B%26gt%3B%26lt%3Bspan%20style%3D%26quot%3Bbackground-color%3A%20transparent%3B%20color%3A%20light-dark(rgb(0%2C%200%2C%200)%2C%20rgb(255%2C%20255%2C%20255))%3B%26quot%3B%26gt%3B-FecVisto%26lt%3B%2Fspan%26gt%3B%26lt%3B%2Fp%26gt%3B%26lt%3Bp%20style%3D%26quot%3Bmargin%3A0px%3Bmargin-left%3A4px%3B%26quot%3B%26gt%3B-PlatVisto%26lt%3Bbr%26gt%3B-Wishl%26lt%3B%2Fp%26gt%3B%26lt%3Bhr%20size%3D%26quot%3B1%26quot%3B%20style%3D%26quot%3Bborder-style%3Asolid%3B%26quot%3B%26gt%3B%26lt%3Bp%20style%3D%26quot%3Bmargin%3A0px%3Bmargin-left%3A4px%3B%26quot%3B%26gt%3B%2BInfoVisto%26lt%3B%2Fp%26gt%3B%22%20style%3D%22verticalAlign%3Dtop%3Balign%3Dleft%3Boverflow%3Dfill%3Bhtml%3D1%3BwhiteSpace%3Dwrap%3B%22%20vertex%3D%221%22%20parent%3D%221%22%3E%3CmxGeometry%20x%3D%22550%22%20y%3D%22110%22%20width%3D%22190%22%20height%3D%22120%22%20as%3D%22geometry%22%2F%3E%3C%2FmxCell%3E%3C%2Froot%3E%3C%2FmxGraphModel%3E&lt;/span&gt;&lt;/p&gt;&lt;hr size=&quot;1&quot; style=&quot;border-style:solid;&quot;&gt;&lt;p style=&quot;margin:0px;margin-left:4px;&quot;&gt;-Nombre: String&lt;br&gt;-Tipo: String&lt;br&gt;-Calificaciones: List&amp;lt;Float&amp;gt;&lt;/p&gt;&lt;p style=&quot;margin:0px;margin-left:4px;&quot;&gt;-Reseñas: Map&amp;lt;Cliente, String&amp;gt;&lt;br&gt;-Plataforma: String&lt;br&gt;-FechaCreacion: LocalDateTime&lt;/p&gt;&lt;p style=&quot;margin:0px;margin-left:4px;&quot;&gt;-FechaVisto: LocalDateTime&lt;/p&gt;&lt;hr size=&quot;1&quot; style=&quot;border-style:solid;&quot;&gt;&lt;p style=&quot;margin:0px;margin-left:4px;&quot;&gt;+getNombre()&lt;br&gt;+setNombre(nombre: String)&lt;br&gt;+getTipo()&lt;br&gt;+setTipo(tipo: String)&lt;br&gt;+getCalificacion()&lt;br&gt;+setCalificacion(puntaje: Float)&lt;br&gt;+getReseña()&lt;br&gt;+setReseña(cliente: Cliente, reseña: String)&lt;br&gt;+getPlataforma()&lt;br&gt;+setPlataforma(plataforma: String)&lt;br&gt;+getFechaCreacion()&lt;br&gt;+setFechaCreacion(fechaCreacion: LocalDateTime)&lt;/p&gt;&lt;p style=&quot;margin:0px;margin-left:4px;&quot;&gt;+getFechaVisto()&lt;/p&gt;&lt;p style=&quot;margin:0px;margin-left:4px;&quot;&gt;+setFechaVisto(fecha: LocalDateTime)&lt;/p&gt;" style="verticalAlign=top;align=left;overflow=fill;html=1;whiteSpace=wrap;" parent="1" vertex="1">
          <mxGeometry x="530" y="680" width="322.5" height="373" as="geometry" />
        </mxCell>
        <mxCell id="LJnf9fmG7pfZY_vgP7vN-15" value="Libro" style="swimlane;fontStyle=0;childLayout=stackLayout;horizontal=1;startSize=26;fillColor=none;horizontalStack=0;resizeParent=1;resizeParentMax=0;resizeLast=0;collapsible=1;marginBottom=0;whiteSpace=wrap;html=1;" parent="1" vertex="1">
          <mxGeometry x="1080" y="610" width="140" height="52" as="geometry" />
        </mxCell>
        <mxCell id="LJnf9fmG7pfZY_vgP7vN-16" value="-Paginas: Float" style="text;strokeColor=none;fillColor=none;align=left;verticalAlign=top;spacingLeft=4;spacingRight=4;overflow=hidden;rotatable=0;points=[[0,0.5],[1,0.5]];portConstraint=eastwest;whiteSpace=wrap;html=1;" parent="LJnf9fmG7pfZY_vgP7vN-15" vertex="1">
          <mxGeometry y="26" width="140" height="26" as="geometry" />
        </mxCell>
        <mxCell id="LJnf9fmG7pfZY_vgP7vN-19" value="Pelicula" style="swimlane;fontStyle=0;childLayout=stackLayout;horizontal=1;startSize=26;fillColor=none;horizontalStack=0;resizeParent=1;resizeParentMax=0;resizeLast=0;collapsible=1;marginBottom=0;whiteSpace=wrap;html=1;" parent="1" vertex="1">
          <mxGeometry x="1080" y="677" width="140" height="52" as="geometry" />
        </mxCell>
        <mxCell id="LJnf9fmG7pfZY_vgP7vN-20" value="-Duracion: Float" style="text;strokeColor=none;fillColor=none;align=left;verticalAlign=top;spacingLeft=4;spacingRight=4;overflow=hidden;rotatable=0;points=[[0,0.5],[1,0.5]];portConstraint=eastwest;whiteSpace=wrap;html=1;" parent="LJnf9fmG7pfZY_vgP7vN-19" vertex="1">
          <mxGeometry y="26" width="140" height="26" as="geometry" />
        </mxCell>
        <mxCell id="LJnf9fmG7pfZY_vgP7vN-21" value="Series&lt;span style=&quot;white-space: pre;&quot;&gt;&#x9;&lt;/span&gt;" style="swimlane;fontStyle=0;childLayout=stackLayout;horizontal=1;startSize=26;fillColor=none;horizontalStack=0;resizeParent=1;resizeParentMax=0;resizeLast=0;collapsible=1;marginBottom=0;whiteSpace=wrap;html=1;" parent="1" vertex="1">
          <mxGeometry x="1080" y="817" width="140" height="70" as="geometry" />
        </mxCell>
        <mxCell id="LJnf9fmG7pfZY_vgP7vN-22" value="-Capitulos: Int&lt;div&gt;-Temporadas: Int&lt;/div&gt;" style="text;strokeColor=none;fillColor=none;align=left;verticalAlign=top;spacingLeft=4;spacingRight=4;overflow=hidden;rotatable=0;points=[[0,0.5],[1,0.5]];portConstraint=eastwest;whiteSpace=wrap;html=1;" parent="LJnf9fmG7pfZY_vgP7vN-21" vertex="1">
          <mxGeometry y="26" width="140" height="44" as="geometry" />
        </mxCell>
        <mxCell id="LJnf9fmG7pfZY_vgP7vN-23" value="Podcast" style="swimlane;fontStyle=0;childLayout=stackLayout;horizontal=1;startSize=26;fillColor=none;horizontalStack=0;resizeParent=1;resizeParentMax=0;resizeLast=0;collapsible=1;marginBottom=0;whiteSpace=wrap;html=1;" parent="1" vertex="1">
          <mxGeometry x="1080" y="737" width="140" height="70" as="geometry" />
        </mxCell>
        <mxCell id="LJnf9fmG7pfZY_vgP7vN-24" value="-Duracion: Float&lt;div&gt;-Episodios: Int&lt;/div&gt;" style="text;strokeColor=none;fillColor=none;align=left;verticalAlign=top;spacingLeft=4;spacingRight=4;overflow=hidden;rotatable=0;points=[[0,0.5],[1,0.5]];portConstraint=eastwest;whiteSpace=wrap;html=1;" parent="LJnf9fmG7pfZY_vgP7vN-23" vertex="1">
          <mxGeometry y="26" width="140" height="44" as="geometry" />
        </mxCell>
        <mxCell id="LJnf9fmG7pfZY_vgP7vN-28" value="" style="endArrow=classic;html=1;rounded=0;entryX=0.5;entryY=0;entryDx=0;entryDy=0;exitX=0.486;exitY=1;exitDx=0;exitDy=0;exitPerimeter=0;" parent="1" source="LJnf9fmG7pfZY_vgP7vN-36" target="LJnf9fmG7pfZY_vgP7vN-12" edge="1">
          <mxGeometry width="50" height="50" relative="1" as="geometry">
            <mxPoint x="940" y="210" as="sourcePoint" />
            <mxPoint x="440" y="400" as="targetPoint" />
          </mxGeometry>
        </mxCell>
        <mxCell id="LJnf9fmG7pfZY_vgP7vN-33" value="PlataformaCentral" style="swimlane;fontStyle=1;align=center;verticalAlign=top;childLayout=stackLayout;horizontal=1;startSize=26;horizontalStack=0;resizeParent=1;resizeParentMax=0;resizeLast=0;collapsible=1;marginBottom=0;whiteSpace=wrap;html=1;" parent="1" vertex="1">
          <mxGeometry x="510" y="390" width="440" height="230" as="geometry" />
        </mxCell>
        <mxCell id="LJnf9fmG7pfZY_vgP7vN-34" value="-listaContenidos: List&amp;lt;Contenido&amp;gt;" style="text;strokeColor=none;fillColor=none;align=left;verticalAlign=top;spacingLeft=4;spacingRight=4;overflow=hidden;rotatable=0;points=[[0,0.5],[1,0.5]];portConstraint=eastwest;whiteSpace=wrap;html=1;" parent="LJnf9fmG7pfZY_vgP7vN-33" vertex="1">
          <mxGeometry y="26" width="440" height="54" as="geometry" />
        </mxCell>
        <mxCell id="LJnf9fmG7pfZY_vgP7vN-35" value="" style="line;strokeWidth=1;fillColor=none;align=left;verticalAlign=middle;spacingTop=-1;spacingLeft=3;spacingRight=3;rotatable=0;labelPosition=right;points=[];portConstraint=eastwest;strokeColor=inherit;" parent="LJnf9fmG7pfZY_vgP7vN-33" vertex="1">
          <mxGeometry y="80" width="440" height="8" as="geometry" />
        </mxCell>
        <mxCell id="LJnf9fmG7pfZY_vgP7vN-36" value="&lt;p style=&quot;margin: 0px 0px 0px 4px;&quot;&gt;+existeContenido(contenido: Contenido)&lt;/p&gt;&lt;p style=&quot;margin: 0px 0px 0px 4px;&quot;&gt;&lt;span style=&quot;background-color: transparent; color: light-dark(rgb(0, 0, 0), rgb(255, 255, 255));&quot;&gt;+calificacionValida(puntaje: Float)&lt;/span&gt;&lt;/p&gt;&lt;p style=&quot;margin: 0px 0px 0px 4px;&quot;&gt;&lt;span style=&quot;background-color: transparent; color: light-dark(rgb(0, 0, 0), rgb(255, 255, 255));&quot;&gt;+marcarVisto(nombre: String, fecha:&amp;nbsp;&lt;/span&gt;&lt;span style=&quot;background-color: transparent; color: light-dark(rgb(0, 0, 0), rgb(255, 255, 255));&quot;&gt;LocalDateTime)&lt;/span&gt;&lt;/p&gt;&lt;p style=&quot;margin: 0px 0px 0px 4px;&quot;&gt;&lt;span style=&quot;background-color: transparent; color: light-dark(rgb(0, 0, 0), rgb(255, 255, 255));&quot;&gt;+getListaContenidos()&lt;/span&gt;&lt;/p&gt;&lt;p style=&quot;margin: 0px 0px 0px 4px;&quot;&gt;&lt;span style=&quot;background-color: transparent; color: light-dark(rgb(0, 0, 0), rgb(255, 255, 255));&quot;&gt;+getContenido(titulo: String)&lt;/span&gt;&lt;/p&gt;" style="text;strokeColor=none;fillColor=none;align=left;verticalAlign=top;spacingLeft=4;spacingRight=4;overflow=hidden;rotatable=0;points=[[0,0.5],[1,0.5]];portConstraint=eastwest;whiteSpace=wrap;html=1;" parent="LJnf9fmG7pfZY_vgP7vN-33" vertex="1">
          <mxGeometry y="88" width="440" height="142" as="geometry" />
        </mxCell>
        <mxCell id="1WwdxtopQ0MWzuDS0trp-1" value="&lt;p style=&quot;margin:0px;margin-top:4px;text-align:center;&quot;&gt;&lt;i&gt;GestorClientes&lt;/i&gt;&lt;span style=&quot;color: rgba(0, 0, 0, 0); font-family: monospace; font-size: 0px; text-wrap-mode: nowrap; background-color: transparent; text-align: left;&quot;&gt;%3CmxGraphModel%3E%3Croot%3E%3CmxCell%20id%3D%220%22%2F%3E%3CmxCell%20id%3D%221%22%20parent%3D%220%22%2F%3E%3CmxCell%20id%3D%222%22%20value%3D%22%26lt%3Bp%20style%3D%26quot%3Bmargin%3A0px%3Bmargin-top%3A4px%3Btext-align%3Acenter%3B%26quot%3B%26gt%3B%26lt%3Bi%26gt%3BVisto%26lt%3B%2Fi%26gt%3B%26lt%3B%2Fp%26gt%3B%26lt%3Bhr%20size%3D%26quot%3B1%26quot%3B%20style%3D%26quot%3Bborder-style%3Asolid%3B%26quot%3B%26gt%3B%26lt%3Bp%20style%3D%26quot%3Bmargin%3A0px%3Bmargin-left%3A4px%3B%26quot%3B%26gt%3B-NomVisto%26lt%3B%2Fp%26gt%3B%26lt%3Bp%20style%3D%26quot%3Bmargin%3A0px%3Bmargin-left%3A4px%3B%26quot%3B%26gt%3B%26lt%3Bspan%20style%3D%26quot%3Bbackground-color%3A%20transparent%3B%20color%3A%20light-dark(rgb(0%2C%200%2C%200)%2C%20rgb(255%2C%20255%2C%20255))%3B%26quot%3B%26gt%3B-FecVisto%26lt%3B%2Fspan%26gt%3B%26lt%3B%2Fp%26gt%3B%26lt%3Bp%20style%3D%26quot%3Bmargin%3A0px%3Bmargin-left%3A4px%3B%26quot%3B%26gt%3B-PlatVisto%26lt%3Bbr%26gt%3B-Wishl%26lt%3B%2Fp%26gt%3B%26lt%3Bhr%20size%3D%26quot%3B1%26quot%3B%20style%3D%26quot%3Bborder-style%3Asolid%3B%26quot%3B%26gt%3B%26lt%3Bp%20style%3D%26quot%3Bmargin%3A0px%3Bmargin-left%3A4px%3B%26quot%3B%26gt%3B%2BInfoVisto%26lt%3B%2Fp%26gt%3B%22%20style%3D%22verticalAlign%3Dtop%3Balign%3Dleft%3Boverflow%3Dfill%3Bhtml%3D1%3BwhiteSpace%3Dwrap%3B%22%20vertex%3D%221%22%20parent%3D%221%22%3E%3CmxGeometry%20x%3D%22550%22%20y%3D%22110%22%20width%3D%22190%22%20height%3D%22120%22%20as%3D%22geometry%22%2F%3E%3C%2FmxCell%3E%3C%2Froot%3E%3C%2FmxGraphModel%3E&lt;/span&gt;&lt;/p&gt;&lt;hr size=&quot;1&quot; style=&quot;border-style:solid;&quot;&gt;&lt;p style=&quot;margin:0px;margin-left:4px;&quot;&gt;-listaClientes: List&amp;lt;Cliente&amp;gt;&lt;/p&gt;&lt;hr size=&quot;1&quot; style=&quot;border-style:solid;&quot;&gt;&lt;p style=&quot;margin: 0px 0px 0px 4px;&quot;&gt;+RegistrarCliente(user:String,password:String)&lt;br&gt;&lt;/p&gt;&lt;p style=&quot;margin: 0px 0px 0px 4px;&quot;&gt;+EliminarCuenta(user:String)&lt;/p&gt;&lt;p style=&quot;margin: 0px 0px 0px 4px;&quot;&gt;+GetListaClientes()&lt;/p&gt;&lt;p style=&quot;margin: 0px 0px 0px 4px;&quot;&gt;+GetCliente(name: String)&lt;/p&gt;&lt;p style=&quot;margin: 0px 0px 0px 4px;&quot;&gt;+Existe(name: String)&lt;/p&gt;&lt;p style=&quot;margin: 0px 0px 0px 4px;&quot;&gt;+GetWishlist(cliente: Cliente, titulo: String)&lt;/p&gt;&lt;p style=&quot;margin: 0px 0px 0px 4px;&quot;&gt;+AgregarWishlist(cliente: Cliente, titulo: String)&lt;/p&gt;" style="verticalAlign=top;align=left;overflow=fill;html=1;whiteSpace=wrap;movable=1;resizable=1;rotatable=1;deletable=1;editable=1;locked=0;connectable=1;" parent="1" vertex="1">
          <mxGeometry x="94" y="70" width="326" height="180" as="geometry" />
        </mxCell>
        <mxCell id="1WwdxtopQ0MWzuDS0trp-2" value="&lt;p style=&quot;margin:0px;margin-top:4px;text-align:center;&quot;&gt;&lt;i&gt;AdministradorDeContenido&lt;/i&gt;&lt;span style=&quot;color: rgba(0, 0, 0, 0); font-family: monospace; font-size: 0px; text-wrap-mode: nowrap; background-color: transparent; text-align: left;&quot;&gt;%3CmxGraphModel%3E%3Croot%3E%3CmxCell%20id%3D%220%22%2F%3E%3CmxCell%20id%3D%221%22%20parent%3D%220%22%2F%3E%3CmxCell%20id%3D%222%22%20value%3D%22%26lt%3Bp%20style%3D%26quot%3Bmargin%3A0px%3Bmargin-top%3A4px%3Btext-align%3Acenter%3B%26quot%3B%26gt%3B%26lt%3Bi%26gt%3BVisto%26lt%3B%2Fi%26gt%3B%26lt%3B%2Fp%26gt%3B%26lt%3Bhr%20size%3D%26quot%3B1%26quot%3B%20style%3D%26quot%3Bborder-style%3Asolid%3B%26quot%3B%26gt%3B%26lt%3Bp%20style%3D%26quot%3Bmargin%3A0px%3Bmargin-left%3A4px%3B%26quot%3B%26gt%3B-NomVisto%26lt%3B%2Fp%26gt%3B%26lt%3Bp%20style%3D%26quot%3Bmargin%3A0px%3Bmargin-left%3A4px%3B%26quot%3B%26gt%3B%26lt%3Bspan%20style%3D%26quot%3Bbackground-color%3A%20transparent%3B%20color%3A%20light-dark(rgb(0%2C%200%2C%200)%2C%20rgb(255%2C%20255%2C%20255))%3B%26quot%3B%26gt%3B-FecVisto%26lt%3B%2Fspan%26gt%3B%26lt%3B%2Fp%26gt%3B%26lt%3Bp%20style%3D%26quot%3Bmargin%3A0px%3Bmargin-left%3A4px%3B%26quot%3B%26gt%3B-PlatVisto%26lt%3Bbr%26gt%3B-Wishl%26lt%3B%2Fp%26gt%3B%26lt%3Bhr%20size%3D%26quot%3B1%26quot%3B%20style%3D%26quot%3Bborder-style%3Asolid%3B%26quot%3B%26gt%3B%26lt%3Bp%20style%3D%26quot%3Bmargin%3A0px%3Bmargin-left%3A4px%3B%26quot%3B%26gt%3B%2BInfoVisto%26lt%3B%2Fp%26gt%3B%22%20style%3D%22verticalAlign%3Dtop%3Balign%3Dleft%3Boverflow%3Dfill%3Bhtml%3D1%3BwhiteSpace%3Dwrap%3B%22%20vertex%3D%221%22%20parent%3D%221%22%3E%3CmxGeometry%20x%3D%22550%22%20y%3D%22110%22%20width%3D%22190%22%20height%3D%22120%22%20as%3D%22geometry%22%2F%3E%3C%2FmxCell%3E%3C%2Froot%3E%3C%2FmxGraphModel%3E&lt;/span&gt;&lt;/p&gt;&lt;hr size=&quot;1&quot; style=&quot;border-style:solid;&quot;&gt;&lt;p style=&quot;margin:0px;margin-left:4px;&quot;&gt;&lt;span style=&quot;background-color: transparent; color: light-dark(rgb(0, 0, 0), rgb(255, 255, 255));&quot;&gt;-plataformaCentral: PlataformaCentral&lt;/span&gt;&lt;/p&gt;&lt;hr size=&quot;1&quot; style=&quot;border-style:solid;&quot;&gt;&lt;p style=&quot;margin: 0px 0px 0px 4px;&quot;&gt;+AgregarContenido(contenido: Contenido)&lt;br&gt;&lt;/p&gt;&lt;p style=&quot;margin: 0px 0px 0px 4px;&quot;&gt;+EliminarContenido(contenido: Contenido)&lt;/p&gt;&lt;p style=&quot;margin: 0px 0px 0px 4px;&quot;&gt;+FueVisto(contenido: Contenido)&lt;/p&gt;&lt;p style=&quot;margin: 0px 0px 0px 4px;&quot;&gt;&lt;span style=&quot;background-color: transparent; color: light-dark(rgb(0, 0, 0), rgb(255, 255, 255));&quot;&gt;+CalificarContenido(contenido:Contenido,puntaje:Float,resena:String)&lt;/span&gt;&lt;/p&gt;&lt;p style=&quot;margin: 0px 0px 0px 4px;&quot;&gt;+UltimosVistos(desde:LocalDateTime,hasta:LocalDateTime,plataforma:String)&lt;/p&gt;" style="verticalAlign=top;align=left;overflow=fill;html=1;whiteSpace=wrap;" parent="1" vertex="1">
          <mxGeometry x="1060" y="-20" width="497.5" height="200" as="geometry" />
        </mxCell>
        <mxCell id="1WwdxtopQ0MWzuDS0trp-6" value="" style="endArrow=classic;startArrow=classic;html=1;fontColor=#FF3333;rounded=0;entryX=0.484;entryY=1.005;entryDx=0;entryDy=0;entryPerimeter=0;exitX=0.53;exitY=-0.006;exitDx=0;exitDy=0;exitPerimeter=0;" parent="1" source="LJnf9fmG7pfZY_vgP7vN-33" target="1WwdxtopQ0MWzuDS0trp-2" edge="1">
          <mxGeometry width="50" height="50" relative="1" as="geometry">
            <mxPoint x="870" y="340" as="sourcePoint" />
            <mxPoint x="800" y="330" as="targetPoint" />
          </mxGeometry>
        </mxCell>
        <mxCell id="1WwdxtopQ0MWzuDS0trp-7" value="&lt;p style=&quot;margin:0px;margin-top:4px;text-align:center;&quot;&gt;&lt;i&gt;FiltroContenido&lt;/i&gt;&lt;span style=&quot;color: rgba(0, 0, 0, 0); font-family: monospace; font-size: 0px; text-wrap-mode: nowrap; background-color: transparent; text-align: left;&quot;&gt;%3CmxGraphModel%3E%3Croot%3E%3CmxCell%20id%3D%220%22%2F%3E%3CmxCell%20id%3D%221%22%20parent%3D%220%22%2F%3E%3CmxCell%20id%3D%222%22%20value%3D%22%26lt%3Bp%20style%3D%26quot%3Bmargin%3A0px%3Bmargin-top%3A4px%3Btext-align%3Acenter%3B%26quot%3B%26gt%3B%26lt%3Bi%26gt%3BVisto%26lt%3B%2Fi%26gt%3B%26lt%3B%2Fp%26gt%3B%26lt%3Bhr%20size%3D%26quot%3B1%26quot%3B%20style%3D%26quot%3Bborder-style%3Asolid%3B%26quot%3B%26gt%3B%26lt%3Bp%20style%3D%26quot%3Bmargin%3A0px%3Bmargin-left%3A4px%3B%26quot%3B%26gt%3B-NomVisto%26lt%3B%2Fp%26gt%3B%26lt%3Bp%20style%3D%26quot%3Bmargin%3A0px%3Bmargin-left%3A4px%3B%26quot%3B%26gt%3B%26lt%3Bspan%20style%3D%26quot%3Bbackground-color%3A%20transparent%3B%20color%3A%20light-dark(rgb(0%2C%200%2C%200)%2C%20rgb(255%2C%20255%2C%20255))%3B%26quot%3B%26gt%3B-FecVisto%26lt%3B%2Fspan%26gt%3B%26lt%3B%2Fp%26gt%3B%26lt%3Bp%20style%3D%26quot%3Bmargin%3A0px%3Bmargin-left%3A4px%3B%26quot%3B%26gt%3B-PlatVisto%26lt%3Bbr%26gt%3B-Wishl%26lt%3B%2Fp%26gt%3B%26lt%3Bhr%20size%3D%26quot%3B1%26quot%3B%20style%3D%26quot%3Bborder-style%3Asolid%3B%26quot%3B%26gt%3B%26lt%3Bp%20style%3D%26quot%3Bmargin%3A0px%3Bmargin-left%3A4px%3B%26quot%3B%26gt%3B%2BInfoVisto%26lt%3B%2Fp%26gt%3B%22%20style%3D%22verticalAlign%3Dtop%3Balign%3Dleft%3Boverflow%3Dfill%3Bhtml%3D1%3BwhiteSpace%3Dwrap%3B%22%20vertex%3D%221%22%20parent%3D%221%22%3E%3CmxGeometry%20x%3D%22550%22%20y%3D%22110%22%20width%3D%22190%22%20height%3D%22120%22%20as%3D%22geometry%22%2F%3E%3C%2FmxCell%3E%3C%2Froot%3E%3C%2FmxGraphModel%3E&lt;/span&gt;&lt;/p&gt;&lt;hr size=&quot;1&quot; style=&quot;border-style:solid;&quot;&gt;&lt;p style=&quot;margin:0px;margin-left:4px;&quot;&gt;-tipo: String&lt;br&gt;-plataforma: String&lt;br&gt;-puntajeMin: Float&lt;br&gt;-fechaMin: LocalDateTime&lt;/p&gt;&lt;hr size=&quot;1&quot; style=&quot;border-style:solid;&quot;&gt;&lt;p style=&quot;margin: 0px 0px 0px 4px;&quot;&gt;+getTipo()&lt;br&gt;+setTipo(tipo: String)&lt;br&gt;+getPlataforma()&lt;br&gt;+setPlataforma(plataforma: String)&lt;br&gt;+getPuntajeMin()&lt;br&gt;+setPuntajeMin(puntajeMin: Float)&lt;br&gt;+getFechaMin()&lt;br&gt;+setFechaMin(fechaMin: LocalDateTime)&lt;/p&gt;&lt;p style=&quot;margin: 0px 0px 0px 4px;&quot;&gt;&lt;br&gt;+cumple(contenido: Contenido)&lt;/p&gt;" style="verticalAlign=top;align=left;overflow=fill;html=1;whiteSpace=wrap;" parent="1" vertex="1">
          <mxGeometry x="1030" y="330" width="270" height="250" as="geometry" />
        </mxCell>
        <mxCell id="1WwdxtopQ0MWzuDS0trp-8" value="" style="endArrow=classic;html=1;rounded=0;entryX=1;entryY=0.5;entryDx=0;entryDy=0;exitX=0.003;exitY=0.127;exitDx=0;exitDy=0;exitPerimeter=0;" parent="1" source="LJnf9fmG7pfZY_vgP7vN-36" target="LJnf9fmG7pfZY_vgP7vN-9" edge="1">
          <mxGeometry width="50" height="50" relative="1" as="geometry">
            <mxPoint x="734" y="630" as="sourcePoint" />
            <mxPoint x="751" y="730" as="targetPoint" />
          </mxGeometry>
        </mxCell>
        <mxCell id="1WwdxtopQ0MWzuDS0trp-9" value="" style="endArrow=classic;html=1;rounded=0;entryX=0.988;entryY=0.006;entryDx=0;entryDy=0;exitX=0.005;exitY=1.008;exitDx=0;exitDy=0;exitPerimeter=0;entryPerimeter=0;" parent="1" source="LJnf9fmG7pfZY_vgP7vN-36" target="LJnf9fmG7pfZY_vgP7vN-11" edge="1">
          <mxGeometry width="50" height="50" relative="1" as="geometry">
            <mxPoint x="450" y="637" as="sourcePoint" />
            <mxPoint x="467" y="737" as="targetPoint" />
          </mxGeometry>
        </mxCell>
        <mxCell id="1WwdxtopQ0MWzuDS0trp-10" value="" style="endArrow=classic;html=1;rounded=0;entryX=0;entryY=0.5;entryDx=0;entryDy=0;exitX=0.995;exitY=0.388;exitDx=0;exitDy=0;exitPerimeter=0;" parent="1" source="LJnf9fmG7pfZY_vgP7vN-12" target="LJnf9fmG7pfZY_vgP7vN-15" edge="1">
          <mxGeometry width="50" height="50" relative="1" as="geometry">
            <mxPoint x="960" y="850" as="sourcePoint" />
            <mxPoint x="977" y="950" as="targetPoint" />
          </mxGeometry>
        </mxCell>
        <mxCell id="1WwdxtopQ0MWzuDS0trp-13" value="" style="endArrow=classic;html=1;rounded=0;entryX=0;entryY=0.5;entryDx=0;entryDy=0;exitX=0.995;exitY=0.388;exitDx=0;exitDy=0;exitPerimeter=0;" parent="1" edge="1">
          <mxGeometry width="50" height="50" relative="1" as="geometry">
            <mxPoint x="851" y="913" as="sourcePoint" />
            <mxPoint x="1080" y="700" as="targetPoint" />
          </mxGeometry>
        </mxCell>
        <mxCell id="1WwdxtopQ0MWzuDS0trp-14" value="" style="endArrow=classic;html=1;rounded=0;entryX=0;entryY=0.5;entryDx=0;entryDy=0;exitX=0.995;exitY=0.388;exitDx=0;exitDy=0;exitPerimeter=0;" parent="1" edge="1">
          <mxGeometry width="50" height="50" relative="1" as="geometry">
            <mxPoint x="851" y="973" as="sourcePoint" />
            <mxPoint x="1080" y="760" as="targetPoint" />
          </mxGeometry>
        </mxCell>
        <mxCell id="1WwdxtopQ0MWzuDS0trp-15" value="" style="endArrow=classic;html=1;rounded=0;entryX=0;entryY=0.5;entryDx=0;entryDy=0;exitX=0.995;exitY=0.388;exitDx=0;exitDy=0;exitPerimeter=0;" parent="1" edge="1">
          <mxGeometry width="50" height="50" relative="1" as="geometry">
            <mxPoint x="851" y="1053" as="sourcePoint" />
            <mxPoint x="1080" y="840" as="targetPoint" />
          </mxGeometry>
        </mxCell>
        <mxCell id="1WwdxtopQ0MWzuDS0trp-16" value="" style="endArrow=classic;startArrow=classic;html=1;fontColor=#FF3333;rounded=0;entryX=0;entryY=0.5;entryDx=0;entryDy=0;exitX=1;exitY=0.437;exitDx=0;exitDy=0;exitPerimeter=0;" parent="1" source="LJnf9fmG7pfZY_vgP7vN-36" target="1WwdxtopQ0MWzuDS0trp-7" edge="1">
          <mxGeometry width="50" height="50" relative="1" as="geometry">
            <mxPoint x="999.5" y="554" as="sourcePoint" />
            <mxPoint x="997.5" y="456" as="targetPoint" />
          </mxGeometry>
        </mxCell>
        <mxCell id="1WwdxtopQ0MWzuDS0trp-17" value="" style="endArrow=classic;startArrow=classic;html=1;fontColor=#FF3333;rounded=0;entryX=0.542;entryY=1.032;entryDx=0;entryDy=0;entryPerimeter=0;exitX=0.593;exitY=0.009;exitDx=0;exitDy=0;exitPerimeter=0;" parent="1" source="LJnf9fmG7pfZY_vgP7vN-9" target="1WwdxtopQ0MWzuDS0trp-1" edge="1">
          <mxGeometry width="50" height="50" relative="1" as="geometry">
            <mxPoint x="261" y="368" as="sourcePoint" />
            <mxPoint x="259" y="270" as="targetPoint" />
          </mxGeometry>
        </mxCell>
        <mxCell id="1WwdxtopQ0MWzuDS0trp-18" value="" style="endArrow=classic;startArrow=classic;html=1;fontColor=#FF3333;rounded=0;entryX=0.522;entryY=0.996;entryDx=0;entryDy=0;entryPerimeter=0;exitX=0.488;exitY=-0.014;exitDx=0;exitDy=0;exitPerimeter=0;" parent="1" source="LJnf9fmG7pfZY_vgP7vN-11" target="LJnf9fmG7pfZY_vgP7vN-9" edge="1">
          <mxGeometry width="50" height="50" relative="1" as="geometry">
            <mxPoint x="242" y="780" as="sourcePoint" />
            <mxPoint x="240" y="682" as="targetPoint" />
          </mxGeometry>
        </mxCell>
        <mxCell id="z-XTwfcwQ8CL5zRO5QNO-42" style="edgeStyle=orthogonalEdgeStyle;rounded=0;orthogonalLoop=1;jettySize=auto;html=1;exitX=0.5;exitY=0;exitDx=0;exitDy=0;" parent="1" source="z-XTwfcwQ8CL5zRO5QNO-9" target="z-XTwfcwQ8CL5zRO5QNO-33" edge="1">
          <mxGeometry relative="1" as="geometry" />
        </mxCell>
        <mxCell id="D5GfMwbQBdW8Cv-bzkJu-11" style="edgeStyle=orthogonalEdgeStyle;rounded=0;orthogonalLoop=1;jettySize=auto;html=1;exitX=0.5;exitY=0;exitDx=0;exitDy=0;" edge="1" parent="1" source="z-XTwfcwQ8CL5zRO5QNO-9" target="D5GfMwbQBdW8Cv-bzkJu-5">
          <mxGeometry relative="1" as="geometry" />
        </mxCell>
        <mxCell id="z-XTwfcwQ8CL5zRO5QNO-9" value="App" style="swimlane;fontStyle=1;align=center;verticalAlign=top;childLayout=stackLayout;horizontal=1;startSize=26;horizontalStack=0;resizeParent=1;resizeParentMax=0;resizeLast=0;collapsible=1;marginBottom=0;whiteSpace=wrap;html=1;" parent="1" vertex="1">
          <mxGeometry x="562.5" y="-320" width="290" height="424" as="geometry" />
        </mxCell>
        <mxCell id="z-XTwfcwQ8CL5zRO5QNO-10" value="+user: String" style="text;strokeColor=none;fillColor=none;align=left;verticalAlign=top;spacingLeft=4;spacingRight=4;overflow=hidden;rotatable=0;points=[[0,0.5],[1,0.5]];portConstraint=eastwest;whiteSpace=wrap;html=1;" parent="z-XTwfcwQ8CL5zRO5QNO-9" vertex="1">
          <mxGeometry y="26" width="290" height="26" as="geometry" />
        </mxCell>
        <mxCell id="z-XTwfcwQ8CL5zRO5QNO-15" value="+scanner: Scanner" style="text;strokeColor=none;fillColor=none;align=left;verticalAlign=top;spacingLeft=4;spacingRight=4;overflow=hidden;rotatable=0;points=[[0,0.5],[1,0.5]];portConstraint=eastwest;whiteSpace=wrap;html=1;" parent="z-XTwfcwQ8CL5zRO5QNO-9" vertex="1">
          <mxGeometry y="52" width="290" height="26" as="geometry" />
        </mxCell>
        <mxCell id="z-XTwfcwQ8CL5zRO5QNO-14" value="+adminContenido: AdministradorDeContenido" style="text;strokeColor=none;fillColor=none;align=left;verticalAlign=top;spacingLeft=4;spacingRight=4;overflow=hidden;rotatable=0;points=[[0,0.5],[1,0.5]];portConstraint=eastwest;whiteSpace=wrap;html=1;" parent="z-XTwfcwQ8CL5zRO5QNO-9" vertex="1">
          <mxGeometry y="78" width="290" height="26" as="geometry" />
        </mxCell>
        <mxCell id="z-XTwfcwQ8CL5zRO5QNO-16" value="+gestorClientes: GestorClientes" style="text;strokeColor=none;fillColor=none;align=left;verticalAlign=top;spacingLeft=4;spacingRight=4;overflow=hidden;rotatable=0;points=[[0,0.5],[1,0.5]];portConstraint=eastwest;whiteSpace=wrap;html=1;" parent="z-XTwfcwQ8CL5zRO5QNO-9" vertex="1">
          <mxGeometry y="104" width="290" height="26" as="geometry" />
        </mxCell>
        <mxCell id="z-XTwfcwQ8CL5zRO5QNO-11" value="" style="line;strokeWidth=1;fillColor=none;align=left;verticalAlign=middle;spacingTop=-1;spacingLeft=3;spacingRight=3;rotatable=0;labelPosition=right;points=[];portConstraint=eastwest;strokeColor=inherit;" parent="z-XTwfcwQ8CL5zRO5QNO-9" vertex="1">
          <mxGeometry y="130" width="290" height="8" as="geometry" />
        </mxCell>
        <mxCell id="z-XTwfcwQ8CL5zRO5QNO-12" value="+crearContenido()" style="text;strokeColor=none;fillColor=none;align=left;verticalAlign=top;spacingLeft=4;spacingRight=4;overflow=hidden;rotatable=0;points=[[0,0.5],[1,0.5]];portConstraint=eastwest;whiteSpace=wrap;html=1;" parent="z-XTwfcwQ8CL5zRO5QNO-9" vertex="1">
          <mxGeometry y="138" width="290" height="26" as="geometry" />
        </mxCell>
        <mxCell id="z-XTwfcwQ8CL5zRO5QNO-17" value="+eliminarContenido()" style="text;strokeColor=none;fillColor=none;align=left;verticalAlign=top;spacingLeft=4;spacingRight=4;overflow=hidden;rotatable=0;points=[[0,0.5],[1,0.5]];portConstraint=eastwest;whiteSpace=wrap;html=1;" parent="z-XTwfcwQ8CL5zRO5QNO-9" vertex="1">
          <mxGeometry y="164" width="290" height="26" as="geometry" />
        </mxCell>
        <mxCell id="z-XTwfcwQ8CL5zRO5QNO-18" value="+iniciarSesion()" style="text;strokeColor=none;fillColor=none;align=left;verticalAlign=top;spacingLeft=4;spacingRight=4;overflow=hidden;rotatable=0;points=[[0,0.5],[1,0.5]];portConstraint=eastwest;whiteSpace=wrap;html=1;" parent="z-XTwfcwQ8CL5zRO5QNO-9" vertex="1">
          <mxGeometry y="190" width="290" height="26" as="geometry" />
        </mxCell>
        <mxCell id="z-XTwfcwQ8CL5zRO5QNO-20" value="+registrarse()" style="text;strokeColor=none;fillColor=none;align=left;verticalAlign=top;spacingLeft=4;spacingRight=4;overflow=hidden;rotatable=0;points=[[0,0.5],[1,0.5]];portConstraint=eastwest;whiteSpace=wrap;html=1;" parent="z-XTwfcwQ8CL5zRO5QNO-9" vertex="1">
          <mxGeometry y="216" width="290" height="26" as="geometry" />
        </mxCell>
        <mxCell id="z-XTwfcwQ8CL5zRO5QNO-19" value="+listarContenidos()" style="text;strokeColor=none;fillColor=none;align=left;verticalAlign=top;spacingLeft=4;spacingRight=4;overflow=hidden;rotatable=0;points=[[0,0.5],[1,0.5]];portConstraint=eastwest;whiteSpace=wrap;html=1;" parent="z-XTwfcwQ8CL5zRO5QNO-9" vertex="1">
          <mxGeometry y="242" width="290" height="26" as="geometry" />
        </mxCell>
        <mxCell id="z-XTwfcwQ8CL5zRO5QNO-24" value="+agregar()" style="text;strokeColor=none;fillColor=none;align=left;verticalAlign=top;spacingLeft=4;spacingRight=4;overflow=hidden;rotatable=0;points=[[0,0.5],[1,0.5]];portConstraint=eastwest;whiteSpace=wrap;html=1;" parent="z-XTwfcwQ8CL5zRO5QNO-9" vertex="1">
          <mxGeometry y="268" width="290" height="26" as="geometry" />
        </mxCell>
        <mxCell id="z-XTwfcwQ8CL5zRO5QNO-22" value="+nuevaWishlist()" style="text;strokeColor=none;fillColor=none;align=left;verticalAlign=top;spacingLeft=4;spacingRight=4;overflow=hidden;rotatable=0;points=[[0,0.5],[1,0.5]];portConstraint=eastwest;whiteSpace=wrap;html=1;" parent="z-XTwfcwQ8CL5zRO5QNO-9" vertex="1">
          <mxGeometry y="294" width="290" height="26" as="geometry" />
        </mxCell>
        <mxCell id="z-XTwfcwQ8CL5zRO5QNO-23" value="+calificar()" style="text;strokeColor=none;fillColor=none;align=left;verticalAlign=top;spacingLeft=4;spacingRight=4;overflow=hidden;rotatable=0;points=[[0,0.5],[1,0.5]];portConstraint=eastwest;whiteSpace=wrap;html=1;" parent="z-XTwfcwQ8CL5zRO5QNO-9" vertex="1">
          <mxGeometry y="320" width="290" height="26" as="geometry" />
        </mxCell>
        <mxCell id="z-XTwfcwQ8CL5zRO5QNO-21" value="+agregarAmigo()" style="text;strokeColor=none;fillColor=none;align=left;verticalAlign=top;spacingLeft=4;spacingRight=4;overflow=hidden;rotatable=0;points=[[0,0.5],[1,0.5]];portConstraint=eastwest;whiteSpace=wrap;html=1;" parent="z-XTwfcwQ8CL5zRO5QNO-9" vertex="1">
          <mxGeometry y="346" width="290" height="26" as="geometry" />
        </mxCell>
        <mxCell id="z-XTwfcwQ8CL5zRO5QNO-26" value="+eliminarAmigo()" style="text;strokeColor=none;fillColor=none;align=left;verticalAlign=top;spacingLeft=4;spacingRight=4;overflow=hidden;rotatable=0;points=[[0,0.5],[1,0.5]];portConstraint=eastwest;whiteSpace=wrap;html=1;" parent="z-XTwfcwQ8CL5zRO5QNO-9" vertex="1">
          <mxGeometry y="372" width="290" height="26" as="geometry" />
        </mxCell>
        <mxCell id="z-XTwfcwQ8CL5zRO5QNO-25" value="-currentUser()" style="text;strokeColor=none;fillColor=none;align=left;verticalAlign=top;spacingLeft=4;spacingRight=4;overflow=hidden;rotatable=0;points=[[0,0.5],[1,0.5]];portConstraint=eastwest;whiteSpace=wrap;html=1;" parent="z-XTwfcwQ8CL5zRO5QNO-9" vertex="1">
          <mxGeometry y="398" width="290" height="26" as="geometry" />
        </mxCell>
        <mxCell id="z-XTwfcwQ8CL5zRO5QNO-28" style="edgeStyle=orthogonalEdgeStyle;rounded=0;orthogonalLoop=1;jettySize=auto;html=1;exitX=0;exitY=0.5;exitDx=0;exitDy=0;" parent="1" source="z-XTwfcwQ8CL5zRO5QNO-17" target="1WwdxtopQ0MWzuDS0trp-1" edge="1">
          <mxGeometry relative="1" as="geometry" />
        </mxCell>
        <mxCell id="z-XTwfcwQ8CL5zRO5QNO-32" style="edgeStyle=orthogonalEdgeStyle;rounded=0;orthogonalLoop=1;jettySize=auto;html=1;" parent="1" source="z-XTwfcwQ8CL5zRO5QNO-20" target="1WwdxtopQ0MWzuDS0trp-2" edge="1">
          <mxGeometry relative="1" as="geometry" />
        </mxCell>
        <mxCell id="z-XTwfcwQ8CL5zRO5QNO-33" value="ContenidoInput" style="swimlane;fontStyle=1;align=center;verticalAlign=top;childLayout=stackLayout;horizontal=1;startSize=26;horizontalStack=0;resizeParent=1;resizeParentMax=0;resizeLast=0;collapsible=1;marginBottom=0;whiteSpace=wrap;html=1;movable=1;resizable=1;rotatable=1;deletable=1;editable=1;locked=0;connectable=1;" parent="1" vertex="1">
          <mxGeometry x="578.75" y="-750" width="257.5" height="216" as="geometry" />
        </mxCell>
        <mxCell id="z-XTwfcwQ8CL5zRO5QNO-34" value="+nombre: String" style="text;strokeColor=none;fillColor=none;align=left;verticalAlign=top;spacingLeft=4;spacingRight=4;overflow=hidden;rotatable=1;points=[[0,0.5],[1,0.5]];portConstraint=eastwest;whiteSpace=wrap;html=1;movable=1;resizable=1;deletable=1;editable=1;locked=0;connectable=1;" parent="z-XTwfcwQ8CL5zRO5QNO-33" vertex="1">
          <mxGeometry y="26" width="257.5" height="26" as="geometry" />
        </mxCell>
        <mxCell id="z-XTwfcwQ8CL5zRO5QNO-39" value="+tipo: String" style="text;strokeColor=none;fillColor=none;align=left;verticalAlign=top;spacingLeft=4;spacingRight=4;overflow=hidden;rotatable=1;points=[[0,0.5],[1,0.5]];portConstraint=eastwest;whiteSpace=wrap;html=1;movable=1;resizable=1;deletable=1;editable=1;locked=0;connectable=1;" parent="z-XTwfcwQ8CL5zRO5QNO-33" vertex="1">
          <mxGeometry y="52" width="257.5" height="26" as="geometry" />
        </mxCell>
        <mxCell id="z-XTwfcwQ8CL5zRO5QNO-37" value="+plataforma: String" style="text;strokeColor=none;fillColor=none;align=left;verticalAlign=top;spacingLeft=4;spacingRight=4;overflow=hidden;rotatable=1;points=[[0,0.5],[1,0.5]];portConstraint=eastwest;whiteSpace=wrap;html=1;movable=1;resizable=1;deletable=1;editable=1;locked=0;connectable=1;" parent="z-XTwfcwQ8CL5zRO5QNO-33" vertex="1">
          <mxGeometry y="78" width="257.5" height="26" as="geometry" />
        </mxCell>
        <mxCell id="z-XTwfcwQ8CL5zRO5QNO-38" value="+fecha: LocalDateTime" style="text;strokeColor=none;fillColor=none;align=left;verticalAlign=top;spacingLeft=4;spacingRight=4;overflow=hidden;rotatable=1;points=[[0,0.5],[1,0.5]];portConstraint=eastwest;whiteSpace=wrap;html=1;movable=1;resizable=1;deletable=1;editable=1;locked=0;connectable=1;" parent="z-XTwfcwQ8CL5zRO5QNO-33" vertex="1">
          <mxGeometry y="104" width="257.5" height="26" as="geometry" />
        </mxCell>
        <mxCell id="z-XTwfcwQ8CL5zRO5QNO-35" value="" style="line;strokeWidth=1;fillColor=none;align=left;verticalAlign=middle;spacingTop=-1;spacingLeft=3;spacingRight=3;rotatable=1;labelPosition=right;points=[];portConstraint=eastwest;strokeColor=inherit;movable=1;resizable=1;deletable=1;editable=1;locked=0;connectable=1;" parent="z-XTwfcwQ8CL5zRO5QNO-33" vertex="1">
          <mxGeometry y="130" width="257.5" height="8" as="geometry" />
        </mxCell>
        <mxCell id="z-XTwfcwQ8CL5zRO5QNO-36" value="+genericInput(scanner: Scanner)" style="text;strokeColor=none;fillColor=none;align=left;verticalAlign=top;spacingLeft=4;spacingRight=4;overflow=hidden;rotatable=1;points=[[0,0.5],[1,0.5]];portConstraint=eastwest;whiteSpace=wrap;html=1;movable=1;resizable=1;deletable=1;editable=1;locked=0;connectable=1;" parent="z-XTwfcwQ8CL5zRO5QNO-33" vertex="1">
          <mxGeometry y="138" width="257.5" height="26" as="geometry" />
        </mxCell>
        <mxCell id="z-XTwfcwQ8CL5zRO5QNO-41" value="+&amp;lt;abstract&amp;gt;input(scanner: Scanner)" style="text;strokeColor=none;fillColor=none;align=left;verticalAlign=top;spacingLeft=4;spacingRight=4;overflow=hidden;rotatable=1;points=[[0,0.5],[1,0.5]];portConstraint=eastwest;whiteSpace=wrap;html=1;movable=1;resizable=1;deletable=1;editable=1;locked=0;connectable=1;" parent="z-XTwfcwQ8CL5zRO5QNO-33" vertex="1">
          <mxGeometry y="164" width="257.5" height="26" as="geometry" />
        </mxCell>
        <mxCell id="z-XTwfcwQ8CL5zRO5QNO-40" value="+parseFecha(input: String)" style="text;strokeColor=none;fillColor=none;align=left;verticalAlign=top;spacingLeft=4;spacingRight=4;overflow=hidden;rotatable=1;points=[[0,0.5],[1,0.5]];portConstraint=eastwest;whiteSpace=wrap;html=1;movable=1;resizable=1;deletable=1;editable=1;locked=0;connectable=1;" parent="z-XTwfcwQ8CL5zRO5QNO-33" vertex="1">
          <mxGeometry y="190" width="257.5" height="26" as="geometry" />
        </mxCell>
        <mxCell id="z-XTwfcwQ8CL5zRO5QNO-43" value="SerieInput" style="swimlane;fontStyle=1;align=center;verticalAlign=top;childLayout=stackLayout;horizontal=1;startSize=26;horizontalStack=0;resizeParent=1;resizeParentMax=0;resizeLast=0;collapsible=1;marginBottom=0;whiteSpace=wrap;html=1;movable=1;resizable=1;rotatable=1;deletable=1;editable=1;locked=0;connectable=1;" parent="1" vertex="1">
          <mxGeometry x="1050" y="-444" width="160" height="60" as="geometry" />
        </mxCell>
        <mxCell id="z-XTwfcwQ8CL5zRO5QNO-45" value="" style="line;strokeWidth=1;fillColor=none;align=left;verticalAlign=middle;spacingTop=-1;spacingLeft=3;spacingRight=3;rotatable=1;labelPosition=right;points=[];portConstraint=eastwest;strokeColor=inherit;movable=1;resizable=1;deletable=1;editable=1;locked=0;connectable=1;" parent="z-XTwfcwQ8CL5zRO5QNO-43" vertex="1">
          <mxGeometry y="26" width="160" height="8" as="geometry" />
        </mxCell>
        <mxCell id="z-XTwfcwQ8CL5zRO5QNO-46" value="+input(scanner: Scanner)" style="text;strokeColor=none;fillColor=none;align=left;verticalAlign=top;spacingLeft=4;spacingRight=4;overflow=hidden;rotatable=1;points=[[0,0.5],[1,0.5]];portConstraint=eastwest;whiteSpace=wrap;html=1;movable=1;resizable=1;deletable=1;editable=1;locked=0;connectable=1;" parent="z-XTwfcwQ8CL5zRO5QNO-43" vertex="1">
          <mxGeometry y="34" width="160" height="26" as="geometry" />
        </mxCell>
        <mxCell id="z-XTwfcwQ8CL5zRO5QNO-47" value="PodcastInput" style="swimlane;fontStyle=1;align=center;verticalAlign=top;childLayout=stackLayout;horizontal=1;startSize=26;horizontalStack=0;resizeParent=1;resizeParentMax=0;resizeLast=0;collapsible=1;marginBottom=0;whiteSpace=wrap;html=1;movable=1;resizable=1;rotatable=1;deletable=1;editable=1;locked=0;connectable=1;" parent="1" vertex="1">
          <mxGeometry x="1050" y="-550" width="160" height="60" as="geometry" />
        </mxCell>
        <mxCell id="z-XTwfcwQ8CL5zRO5QNO-48" value="" style="line;strokeWidth=1;fillColor=none;align=left;verticalAlign=middle;spacingTop=-1;spacingLeft=3;spacingRight=3;rotatable=1;labelPosition=right;points=[];portConstraint=eastwest;strokeColor=inherit;movable=1;resizable=1;deletable=1;editable=1;locked=0;connectable=1;" parent="z-XTwfcwQ8CL5zRO5QNO-47" vertex="1">
          <mxGeometry y="26" width="160" height="8" as="geometry" />
        </mxCell>
        <mxCell id="z-XTwfcwQ8CL5zRO5QNO-49" value="+input(scanner: Scanner)" style="text;strokeColor=none;fillColor=none;align=left;verticalAlign=top;spacingLeft=4;spacingRight=4;overflow=hidden;rotatable=1;points=[[0,0.5],[1,0.5]];portConstraint=eastwest;whiteSpace=wrap;html=1;movable=1;resizable=1;deletable=1;editable=1;locked=0;connectable=1;" parent="z-XTwfcwQ8CL5zRO5QNO-47" vertex="1">
          <mxGeometry y="34" width="160" height="26" as="geometry" />
        </mxCell>
        <mxCell id="z-XTwfcwQ8CL5zRO5QNO-50" value="LibroInput" style="swimlane;fontStyle=1;align=center;verticalAlign=top;childLayout=stackLayout;horizontal=1;startSize=26;horizontalStack=0;resizeParent=1;resizeParentMax=0;resizeLast=0;collapsible=1;marginBottom=0;whiteSpace=wrap;html=1;movable=1;resizable=1;rotatable=1;deletable=1;editable=1;locked=0;connectable=1;" parent="1" vertex="1">
          <mxGeometry x="1050" y="-770" width="160" height="60" as="geometry" />
        </mxCell>
        <mxCell id="z-XTwfcwQ8CL5zRO5QNO-51" value="" style="line;strokeWidth=1;fillColor=none;align=left;verticalAlign=middle;spacingTop=-1;spacingLeft=3;spacingRight=3;rotatable=1;labelPosition=right;points=[];portConstraint=eastwest;strokeColor=inherit;movable=1;resizable=1;deletable=1;editable=1;locked=0;connectable=1;" parent="z-XTwfcwQ8CL5zRO5QNO-50" vertex="1">
          <mxGeometry y="26" width="160" height="8" as="geometry" />
        </mxCell>
        <mxCell id="z-XTwfcwQ8CL5zRO5QNO-52" value="+input(scanner: Scanner)" style="text;strokeColor=none;fillColor=none;align=left;verticalAlign=top;spacingLeft=4;spacingRight=4;overflow=hidden;rotatable=1;points=[[0,0.5],[1,0.5]];portConstraint=eastwest;whiteSpace=wrap;html=1;movable=1;resizable=1;deletable=1;editable=1;locked=0;connectable=1;" parent="z-XTwfcwQ8CL5zRO5QNO-50" vertex="1">
          <mxGeometry y="34" width="160" height="26" as="geometry" />
        </mxCell>
        <mxCell id="z-XTwfcwQ8CL5zRO5QNO-53" value="PeliculaInput" style="swimlane;fontStyle=1;align=center;verticalAlign=top;childLayout=stackLayout;horizontal=1;startSize=26;horizontalStack=0;resizeParent=1;resizeParentMax=0;resizeLast=0;collapsible=1;marginBottom=0;whiteSpace=wrap;html=1;movable=1;resizable=1;rotatable=1;deletable=1;editable=1;locked=0;connectable=1;" parent="1" vertex="1">
          <mxGeometry x="1050" y="-662" width="160" height="60" as="geometry" />
        </mxCell>
        <mxCell id="z-XTwfcwQ8CL5zRO5QNO-54" value="" style="line;strokeWidth=1;fillColor=none;align=left;verticalAlign=middle;spacingTop=-1;spacingLeft=3;spacingRight=3;rotatable=1;labelPosition=right;points=[];portConstraint=eastwest;strokeColor=inherit;movable=1;resizable=1;deletable=1;editable=1;locked=0;connectable=1;" parent="z-XTwfcwQ8CL5zRO5QNO-53" vertex="1">
          <mxGeometry y="26" width="160" height="8" as="geometry" />
        </mxCell>
        <mxCell id="z-XTwfcwQ8CL5zRO5QNO-55" value="+input(scanner: Scanner)" style="text;strokeColor=none;fillColor=none;align=left;verticalAlign=top;spacingLeft=4;spacingRight=4;overflow=hidden;rotatable=1;points=[[0,0.5],[1,0.5]];portConstraint=eastwest;whiteSpace=wrap;html=1;movable=1;resizable=1;deletable=1;editable=1;locked=0;connectable=1;" parent="z-XTwfcwQ8CL5zRO5QNO-53" vertex="1">
          <mxGeometry y="34" width="160" height="26" as="geometry" />
        </mxCell>
        <mxCell id="z-XTwfcwQ8CL5zRO5QNO-57" style="edgeStyle=orthogonalEdgeStyle;rounded=0;orthogonalLoop=1;jettySize=auto;html=1;entryX=0;entryY=0.5;entryDx=0;entryDy=0;movable=1;resizable=1;rotatable=1;deletable=1;editable=1;locked=0;connectable=1;" parent="1" source="z-XTwfcwQ8CL5zRO5QNO-38" target="z-XTwfcwQ8CL5zRO5QNO-50" edge="1">
          <mxGeometry relative="1" as="geometry" />
        </mxCell>
        <mxCell id="z-XTwfcwQ8CL5zRO5QNO-58" style="edgeStyle=orthogonalEdgeStyle;rounded=0;orthogonalLoop=1;jettySize=auto;html=1;movable=1;resizable=1;rotatable=1;deletable=1;editable=1;locked=0;connectable=1;" parent="1" source="z-XTwfcwQ8CL5zRO5QNO-38" target="z-XTwfcwQ8CL5zRO5QNO-53" edge="1">
          <mxGeometry relative="1" as="geometry" />
        </mxCell>
        <mxCell id="z-XTwfcwQ8CL5zRO5QNO-59" style="edgeStyle=orthogonalEdgeStyle;rounded=0;orthogonalLoop=1;jettySize=auto;html=1;entryX=0;entryY=0.5;entryDx=0;entryDy=0;movable=1;resizable=1;rotatable=1;deletable=1;editable=1;locked=0;connectable=1;" parent="1" source="z-XTwfcwQ8CL5zRO5QNO-38" target="z-XTwfcwQ8CL5zRO5QNO-47" edge="1">
          <mxGeometry relative="1" as="geometry" />
        </mxCell>
        <mxCell id="z-XTwfcwQ8CL5zRO5QNO-60" style="edgeStyle=orthogonalEdgeStyle;rounded=0;orthogonalLoop=1;jettySize=auto;html=1;entryX=0;entryY=0.5;entryDx=0;entryDy=0;movable=1;resizable=1;rotatable=1;deletable=1;editable=1;locked=0;connectable=1;" parent="1" source="z-XTwfcwQ8CL5zRO5QNO-38" target="z-XTwfcwQ8CL5zRO5QNO-43" edge="1">
          <mxGeometry relative="1" as="geometry" />
        </mxCell>
        <mxCell id="D5GfMwbQBdW8Cv-bzkJu-5" value="Api" style="swimlane;fontStyle=1;align=center;verticalAlign=top;childLayout=stackLayout;horizontal=1;startSize=26;horizontalStack=0;resizeParent=1;resizeParentMax=0;resizeLast=0;collapsible=1;marginBottom=0;whiteSpace=wrap;html=1;" vertex="1" parent="1">
          <mxGeometry x="140" y="-600" width="220" height="138" as="geometry" />
        </mxCell>
        <mxCell id="D5GfMwbQBdW8Cv-bzkJu-6" value="-clientes: List&amp;lt;Cliente&amp;gt;" style="text;strokeColor=none;fillColor=none;align=left;verticalAlign=top;spacingLeft=4;spacingRight=4;overflow=hidden;rotatable=0;points=[[0,0.5],[1,0.5]];portConstraint=eastwest;whiteSpace=wrap;html=1;" vertex="1" parent="D5GfMwbQBdW8Cv-bzkJu-5">
          <mxGeometry y="26" width="220" height="26" as="geometry" />
        </mxCell>
        <mxCell id="D5GfMwbQBdW8Cv-bzkJu-9" value="-contenidos: List&amp;lt;Contenido&amp;gt;" style="text;strokeColor=none;fillColor=none;align=left;verticalAlign=top;spacingLeft=4;spacingRight=4;overflow=hidden;rotatable=0;points=[[0,0.5],[1,0.5]];portConstraint=eastwest;whiteSpace=wrap;html=1;" vertex="1" parent="D5GfMwbQBdW8Cv-bzkJu-5">
          <mxGeometry y="52" width="220" height="26" as="geometry" />
        </mxCell>
        <mxCell id="D5GfMwbQBdW8Cv-bzkJu-7" value="" style="line;strokeWidth=1;fillColor=none;align=left;verticalAlign=middle;spacingTop=-1;spacingLeft=3;spacingRight=3;rotatable=0;labelPosition=right;points=[];portConstraint=eastwest;strokeColor=inherit;" vertex="1" parent="D5GfMwbQBdW8Cv-bzkJu-5">
          <mxGeometry y="78" width="220" height="8" as="geometry" />
        </mxCell>
        <mxCell id="D5GfMwbQBdW8Cv-bzkJu-8" value="+recomendarUsuarios()" style="text;strokeColor=none;fillColor=none;align=left;verticalAlign=top;spacingLeft=4;spacingRight=4;overflow=hidden;rotatable=0;points=[[0,0.5],[1,0.5]];portConstraint=eastwest;whiteSpace=wrap;html=1;" vertex="1" parent="D5GfMwbQBdW8Cv-bzkJu-5">
          <mxGeometry y="86" width="220" height="26" as="geometry" />
        </mxCell>
        <mxCell id="D5GfMwbQBdW8Cv-bzkJu-10" value="+recomendarContenidos()" style="text;strokeColor=none;fillColor=none;align=left;verticalAlign=top;spacingLeft=4;spacingRight=4;overflow=hidden;rotatable=0;points=[[0,0.5],[1,0.5]];portConstraint=eastwest;whiteSpace=wrap;html=1;" vertex="1" parent="D5GfMwbQBdW8Cv-bzkJu-5">
          <mxGeometry y="112" width="220" height="26" as="geometry" />
        </mxCell>
      </root>
    </mxGraphModel>
  </diagram>
</mxfile>
